<?xml version="1.0" encoding="UTF-8"?>
<svg version="1.1" xmlns="http://www.w3.org/2000/svg" width="512" height="512">
<path d="M0 0 C0.969375 0.16097168 1.93875 0.32194336 2.9375 0.48779297 C52.2269741 8.92699404 101.31050561 33.56634109 136 70 C136.78375 70.78375 137.5675 71.5675 138.375 72.375 C139.24125 73.24125 140.1075 74.1075 141 75 C141.95132813 75.89912109 141.95132813 75.89912109 142.921875 76.81640625 C149.69567157 83.33798699 155.38733342 90.48431818 161 98 C161.4837207 98.64469238 161.96744141 99.28938477 162.46582031 99.95361328 C170.98713584 111.4025491 178.27147029 123.42036586 185 136 C185.40847168 136.75941895 185.81694336 137.51883789 186.23779297 138.30126953 C197.42115769 159.45353714 204.76294355 183.51196967 209 207 C209.16081055 207.83837402 209.32162109 208.67674805 209.48730469 209.54052734 C214.73422049 237.95501056 214.5613595 270.69063673 209 299 C208.83902832 299.89557617 208.67805664 300.79115234 208.51220703 301.71386719 C201.8040516 338.79237474 186.70311001 373.93807436 164 404 C163.58363281 404.55913086 163.16726563 405.11826172 162.73828125 405.69433594 C157.84088202 412.2681526 152.75623313 418.5917248 147.19140625 424.62109375 C145.75941156 426.17561205 144.34928107 427.75063738 142.96484375 429.34765625 C119.72755746 456.05967693 88.70647255 476.97331382 55.95751953 490.20605469 C54.61320834 490.75129041 53.27320498 491.30723217 51.93701172 491.87207031 C35.28623064 498.90455387 35.28623064 498.90455387 27 497 C23.65733459 495.33879659 21.61448076 493.17253358 19.86460876 489.83348083 C18.74251913 486.15618817 18.7158847 482.65863512 18.72875977 478.85180664 C18.72091965 477.64086334 18.72091965 477.64086334 18.71292114 476.40545654 C18.70270076 474.65619404 18.69690416 472.9069013 18.69503975 471.15760994 C18.69136189 468.37661375 18.67459195 465.59596972 18.65428162 462.81504822 C18.59903667 454.90923668 18.56835357 447.00337185 18.54370117 439.09741211 C18.52769336 434.25450302 18.49732901 429.41183989 18.45893669 424.56905937 C18.4473922 422.7357491 18.44135728 420.90239455 18.44125557 419.06904793 C18.43972896 398.85707093 15.28613423 382.0556848 2 366 C7.58147338 364.71109414 13.1509147 363.60502214 18.79956055 362.6574707 C48.05130371 357.68180528 77.60962808 346.05954629 96.25 321.8125 C110.32346093 301.14027938 117.01805666 275.84614221 118 251 C118.04084717 249.98413818 118.04084717 249.98413818 118.08251953 248.94775391 C118.95780887 223.68547244 114.27254874 197.68271781 97 178.1875 C93.03219079 173.4909095 93.03219079 173.4909095 92.75 169.1875 C93.12338424 167.77947088 93.54726487 166.38455506 94 165 C99.29710207 144.29559088 97.30583696 125.04168787 90 105 C88.37298805 103.37298805 86.62646295 103.75059409 84.375 103.6875 C63.3577446 104.01125746 39.43930152 116.64162222 23.0390625 129.28515625 C17.42385515 131.25370595 9.72866937 128.33967404 4.0625 127.0625 C-30.09530567 119.69773091 -67.49268375 119.67470531 -101.234375 129.1875 C-106.33396958 130.28782746 -109.29992563 129.92878722 -113.8671875 127.43359375 C-114.85976562 126.77488281 -115.85234375 126.11617187 -116.875 125.4375 C-127.20431807 118.82152158 -138.08742551 113.60086721 -149.5 109.125 C-150.22920654 108.83874756 -150.95841309 108.55249512 -151.7097168 108.25756836 C-158.36822654 105.72320594 -164.78772012 103.694693 -172 103.875 C-172.94875 103.89304687 -173.8975 103.91109375 -174.875 103.9296875 C-175.57625 103.95289062 -176.2775 103.97609375 -177 104 C-186.86690486 122.67664135 -187.25072513 144.95662287 -182 165 C-181.75636719 165.7425 -181.51273437 166.485 -181.26171875 167.25 C-180.75 169.1875 -180.75 169.1875 -181 173 C-182.99719189 175.95763923 -185.23036296 178.56543495 -187.58984375 181.2421875 C-205.09593354 201.2734669 -207.37100084 230.33458328 -205.71875 255.6796875 C-203.3834359 285.15190377 -193.70572355 315.89985128 -171 336 C-148.97452425 353.45124955 -122.36886479 361.770301 -94.703125 364.54296875 C-92 365 -92 365 -90 367 C-90.44730469 367.46148437 -90.89460937 367.92296875 -91.35546875 368.3984375 C-97.00562878 374.49434576 -101.34725647 380.68700098 -102.73828125 389.01953125 C-104.59338639 399.87257788 -104.59338639 399.87257788 -108.578125 403.06640625 C-116.85757986 406.4821912 -126.12484988 407.31729614 -135 408 C-135.8559375 408.0721875 -136.711875 408.144375 -137.59375 408.21875 C-151.0679648 408.80458543 -162.18857223 402.71894721 -171.98388672 394.02929688 C-175.38012074 390.61085449 -177.85513205 386.67187464 -180.4375 382.625 C-189.41042828 369.0989545 -199.65753674 358.43532054 -215.95703125 354.53125 C-221.27844142 353.60761273 -225.84534204 354.55621849 -231 356 C-230.29920746 359.45411499 -230.29920746 359.45411499 -229 363 C-227.22055277 364.03924678 -227.22055277 364.03924678 -225 365 C-217.80569685 369.89090849 -211.2080455 374.96457011 -206 382 C-205.47535156 382.70511719 -204.95070313 383.41023438 -204.41015625 384.13671875 C-199.37429737 391.49499726 -195.78577871 399.54785688 -192.17089844 407.67602539 C-188.27504192 416.1836988 -183.63341783 422.89656658 -175.5 427.8125 C-174.6234375 428.35519531 -173.746875 428.89789063 -172.84375 429.45703125 C-153.04449198 440.19976053 -128.69157879 437.91481158 -107 436 C-106.8983509 443.2773034 -106.82842968 450.55442282 -106.78027344 457.83227539 C-106.76019229 460.30662885 -106.73292177 462.78093505 -106.69824219 465.25512695 C-106.64957222 468.81733888 -106.62699546 472.37892181 -106.609375 475.94140625 C-106.58872986 477.04271378 -106.56808472 478.1440213 -106.54681396 479.27870178 C-106.54494178 485.72673281 -106.99690132 489.83540549 -111 495 C-115.34577684 498.1895055 -120.86338293 497.49225914 -126 497 C-129.47827474 496.16566613 -132.70020205 494.93243154 -136 493.5625 C-137.35013184 493.02278564 -137.35013184 493.02278564 -138.72753906 492.47216797 C-159.60842318 483.99182291 -178.98506558 473.56069239 -197 460 C-197.55719727 459.5870166 -198.11439453 459.1740332 -198.68847656 458.74853516 C-247.98322681 422.08290104 -282.33379193 367.47809354 -295.375 307.625 C-295.61371826 306.53372803 -295.85243652 305.44245605 -296.09838867 304.31811523 C-299.55052993 287.54932346 -300.37956581 270.95580125 -300.3125 253.875 C-300.31034485 252.88454681 -300.3081897 251.89409363 -300.30596924 250.87362671 C-300.25435911 236.07747966 -299.88903716 221.55757984 -297 207 C-296.79068848 205.94377441 -296.58137695 204.88754883 -296.36572266 203.79931641 C-286.90727811 157.55133806 -266.1161743 117.10719894 -235.27832031 81.47802734 C-234.1145038 80.13239228 -232.95912454 78.77947166 -231.8046875 77.42578125 C-228.16554685 73.22293057 -224.40785159 69.43271922 -220.15625 65.8515625 C-218.6427705 64.55194424 -217.16604132 63.20888166 -215.71875 61.8359375 C-202.03285048 48.8681253 -186.31352289 38.36071851 -170 29 C-169.36143066 28.63181152 -168.72286133 28.26362305 -168.06494141 27.88427734 C-143.38505246 13.80279537 -115.94831273 4.71670625 -88 0 C-87.05205566 -0.16371094 -86.10411133 -0.32742188 -85.12744141 -0.49609375 C-57.39136476 -5.08323234 -27.67856964 -4.75961742 0 0 Z " fill="#000000" transform="translate(300,9)"/>
</svg>
