<?xml version="1.0" encoding="UTF-8"?>
<svg version="1.1" xmlns="http://www.w3.org/2000/svg" width="512" height="512">
<path d="M0 0 C0.74651193 -0.00350607 1.49302385 -0.00701215 2.26215735 -0.01062447 C4.76564752 -0.01993434 7.26890485 -0.01501623 9.77240467 -0.01015663 C11.58465747 -0.01389311 13.39690866 -0.01849462 15.20915729 -0.02388728 C20.19107537 -0.03613318 25.17292638 -0.03585493 30.15485609 -0.03349853 C35.5272099 -0.03309076 40.8995421 -0.04412574 46.27188587 -0.05361366 C56.79851485 -0.07023374 67.32512143 -0.07572368 77.85176244 -0.07683842 C86.40845124 -0.07778849 94.96513265 -0.08189672 103.52181911 -0.08823967 C127.77916418 -0.10585541 152.03649154 -0.11507811 176.29384305 -0.11357872 C177.60183873 -0.11349881 178.90983441 -0.1134189 180.25746632 -0.11333656 C181.56705839 -0.1132548 182.87665047 -0.11317304 184.22592715 -0.1130888 C205.44775135 -0.11227598 226.66950455 -0.13141194 247.89130821 -0.1596133 C269.67932544 -0.18833868 291.46730804 -0.20215376 313.25534469 -0.20042574 C325.48857737 -0.19976169 337.72173565 -0.20526079 349.95495129 -0.22678185 C360.37135675 -0.24498914 370.78765408 -0.2493447 381.20406856 -0.235763 C386.5178229 -0.22923091 391.83136978 -0.22912498 397.14510441 -0.2464695 C402.01279673 -0.26219452 406.88011699 -0.25934223 411.74780021 -0.24190123 C413.5055455 -0.23883009 415.26331852 -0.24246804 417.0210311 -0.25362138 C432.45104137 -0.34501928 444.14176814 2.49916855 455.64735889 13.35883141 C463.66442349 21.85631934 468.74860314 32.04757374 468.6780653 43.83647251 C468.68157137 44.58298444 468.68507745 45.32949636 468.68868977 46.09862986 C468.69799964 48.60212003 468.69308153 51.10537736 468.68822193 53.60887718 C468.69195841 55.42112998 468.69655992 57.23338117 468.70195258 59.0456298 C468.71419848 64.02754788 468.71392023 69.00939889 468.71156383 73.9913286 C468.71115606 79.36368241 468.72219104 84.73601461 468.73167896 90.10835838 C468.74829904 100.63498736 468.75378898 111.16159395 468.75490372 121.68823495 C468.75585379 130.24492375 468.75996202 138.80160516 468.76630497 147.35829163 C468.78392071 171.61563669 468.79314341 195.87296406 468.79164402 220.13031556 C468.79152415 222.09230908 468.79152415 222.09230908 468.79140186 224.09393883 C468.7913201 225.4035309 468.79123834 226.71312298 468.7911541 228.06239966 C468.79034128 249.28422386 468.80947724 270.50597706 468.8376786 291.72778072 C468.86640398 313.51579795 468.88021906 335.30378055 468.87849104 357.0918172 C468.87782699 369.32504988 468.88332609 381.55820816 468.90484715 393.7914238 C468.92305444 404.20782926 468.92741 414.6241266 468.9138283 425.04054108 C468.90729621 430.35429541 468.90719028 435.66784229 468.9245348 440.98157692 C468.94025982 445.84926924 468.93740753 450.71658951 468.91996653 455.58427272 C468.91689539 457.34201801 468.92053334 459.09979103 468.93168668 460.85750362 C469.02308458 476.28751388 466.17889675 487.97824065 455.31923389 499.48383141 C446.82174596 507.500896 436.63049156 512.58507565 424.84159279 512.51453781 C424.09508086 512.51804389 423.34856894 512.52154996 422.57943544 512.52516228 C420.07594527 512.53447215 417.57268794 512.52955404 415.06918812 512.52469444 C413.25693532 512.52843092 411.44468413 512.53303243 409.6324355 512.53842509 C404.65051742 512.55067099 399.66866641 512.55039274 394.6867367 512.54803634 C389.31438289 512.54762857 383.94205069 512.55866355 378.56970692 512.56815147 C368.04307794 512.58477155 357.51647135 512.59026149 346.98983035 512.59137623 C338.43314155 512.5923263 329.87646014 512.59643453 321.31977367 512.60277748 C297.06242861 512.62039323 272.80510124 512.62961592 248.54774974 512.62811653 C247.23975406 512.62803662 245.93175838 512.62795671 244.58412647 512.62787437 C243.2745344 512.62779261 241.96494232 512.62771085 240.61566564 512.62762661 C219.39384144 512.62681379 198.17208824 512.64594975 176.95028458 512.67415111 C155.16226735 512.70287649 133.37428475 512.71669157 111.5862481 512.71496356 C99.35301542 512.7142995 87.11985714 512.7197986 74.8866415 512.74131966 C64.47023604 512.75952695 54.0539387 512.76388251 43.63752422 512.75030081 C38.32376989 512.74376872 33.01022301 512.74366279 27.69648838 512.76100731 C22.82879606 512.77673233 17.96147579 512.77388004 13.09379258 512.75643905 C11.33604729 512.7533679 9.57827427 512.75700585 7.82056168 512.7681592 C-7.60944858 512.85955709 -19.30017535 510.01536926 -30.80576611 499.15570641 C-38.8228307 490.65821847 -43.90701035 480.46696408 -43.83647251 468.6780653 C-43.83997859 467.93155337 -43.84348466 467.18504145 -43.84709698 466.41590795 C-43.85640685 463.91241778 -43.85148874 461.40916045 -43.84662914 458.90566063 C-43.85036562 457.09340783 -43.85496713 455.28115664 -43.86035979 453.46890801 C-43.87260569 448.48698993 -43.87232744 443.50513892 -43.86997104 438.52320921 C-43.86956327 433.1508554 -43.88059825 427.7785232 -43.89008617 422.40617943 C-43.90670625 411.87955045 -43.91219619 401.35294387 -43.91331093 390.82630286 C-43.914261 382.26961406 -43.91836923 373.71293265 -43.92471218 365.15624619 C-43.94232793 340.89890112 -43.95155062 316.64157376 -43.95005123 292.38422225 C-43.94997132 291.07622657 -43.94989141 289.76823089 -43.94980907 288.42059898 C-43.94972731 287.11100691 -43.94964555 285.80141483 -43.94956131 284.45213815 C-43.94874849 263.23031395 -43.96788445 242.00856075 -43.99608581 220.78675709 C-44.02481119 198.99873986 -44.03862627 177.21075726 -44.03689826 155.42272061 C-44.0362342 143.18948793 -44.0417333 130.95632965 -44.06325436 118.72311401 C-44.08146165 108.30670855 -44.08581721 97.89041122 -44.07223551 87.47399674 C-44.06570342 82.1602424 -44.06559749 76.84669552 -44.08294201 71.53296089 C-44.09866703 66.66526857 -44.09581474 61.79794831 -44.07837375 56.93026509 C-44.0753026 55.1725198 -44.07894055 53.41474678 -44.0900939 51.6570342 C-44.18149179 36.22702393 -41.33730396 24.53629716 -30.47764111 13.03070641 C-21.98015317 5.01364181 -11.78889878 -0.07053784 0 0 Z M30.41689014 77.41351891 C22.09876143 87.33059676 17.76654975 100.43515898 18.11220264 113.36664391 C19.87632096 129.89129652 26.42401327 143.55621386 39.42079639 154.25726891 C52.58185211 163.36348239 66.53312354 167.17982946 82.51064014 164.79633141 C98.04246246 161.32667333 110.30748584 153.14913721 118.92079639 139.69476891 C121.78832357 134.71617878 124.09767471 129.85593256 125.42079639 124.25726891 C125.69149952 123.14351891 125.69149952 123.14351891 125.96767139 122.00726891 C128.31463049 107.76365509 126.10125978 93.84348386 118.16298389 81.65961266 C109.2099306 69.31403468 97.73667731 60.64590606 82.58095264 57.70648766 C61.31732749 54.68384626 44.77393266 61.96500532 30.41689014 77.41351891 Z M284.42079639 188.25726891 C282.80817921 188.70972984 282.80817921 188.70972984 281.16298389 189.17133141 C263.97900785 194.46864733 248.11336126 204.81307214 238.42079639 220.25726891 C238.42079639 220.91726891 238.42079639 221.57726891 238.42079639 222.25726891 C237.76079639 222.25726891 237.10079639 222.25726891 236.42079639 222.25726891 C236.44174366 221.53136559 236.46269093 220.80546227 236.48427296 220.05756187 C236.56773289 216.74927335 236.61955178 213.4412068 236.67079639 210.13226891 C236.70431202 208.99015953 236.73782764 207.84805016 236.77235889 206.67133141 C236.88038928 198.15084687 236.88038928 198.15084687 232.42079639 191.25726891 C228.8239872 188.85939611 227.19386042 188.99922027 222.91737843 188.9826107 C222.26172901 188.97749977 221.6060796 188.97238884 220.93056202 188.96712303 C218.76315143 188.95322349 216.59605877 188.95418426 214.42860889 188.95648766 C212.92029674 188.95260038 211.41198568 188.94826564 209.90367603 188.94350243 C206.74121523 188.93603906 203.57886606 188.93633191 200.41640186 188.94159508 C196.36886116 188.94738424 192.32177887 188.93047306 188.27431393 188.9072504 C185.15843005 188.89249767 182.04265612 188.89164354 178.92674351 188.89476013 C177.43484433 188.8942475 175.94293891 188.8890207 174.45107365 188.87894821 C172.36141682 188.8665733 170.27264669 188.87338115 168.18300343 188.88495445 C166.9951424 188.88432503 165.80728138 188.8836956 164.58342457 188.8830471 C160.12771248 189.41027462 157.63494626 190.76637967 154.80347252 194.24322701 C152.80759843 198.5939553 153.00317363 202.53722242 153.03311634 207.27116966 C153.0277308 208.28801293 153.02234527 209.3048562 153.01679653 210.3525129 C153.00247436 213.76416554 153.00963133 217.17543251 153.01674366 220.58710289 C153.01104234 223.03127925 153.00407901 225.47545294 152.99594593 227.91962242 C152.97984054 233.87202813 152.97791921 239.82428197 152.98315883 245.77669459 C152.98720058 250.61492185 152.98575693 255.45311792 152.98041058 260.29134369 C152.97966215 260.97999885 152.97891373 261.66865401 152.97814263 262.37817751 C152.97661115 263.77718846 152.9750728 265.17619941 152.97352766 266.57521034 C152.95980032 279.69428421 152.96524195 292.81329845 152.97671288 305.93237097 C152.98664559 317.93316538 152.9737044 329.93380563 152.94977868 341.93457627 C152.92539353 354.25869483 152.91577836 366.58274157 152.92243141 378.90688378 C152.92592493 385.82527815 152.92368287 392.74355395 152.90618038 399.66193008 C152.88992821 406.16674287 152.89463094 412.67130881 152.91348553 419.17613029 C152.91718037 421.56503619 152.91403705 423.95396378 152.90359974 426.34284973 C152.89044996 429.6010373 152.90188493 432.85823973 152.91959095 436.11638451 C152.90998594 437.06434298 152.90038094 438.01230146 152.89048487 438.98898596 C152.95309747 444.57909254 153.65575967 447.83910222 157.42079639 452.25726891 C161.24343214 455.27958515 164.1569081 455.63543571 168.96767139 455.6454525 C170.27252491 455.65490898 171.57737843 455.66436546 172.92177296 455.67410851 C174.33811721 455.66873849 175.75445867 455.66258546 177.17079639 455.65570641 C178.63140985 455.65772883 180.09202232 455.66064167 181.55263233 455.66440392 C184.60904554 455.66881939 187.66519515 455.66242152 190.72157764 455.64838219 C194.6323339 455.63129043 198.54247245 455.64113583 202.45320606 455.65909958 C205.4678812 455.66995861 208.48241074 455.66648143 211.49709034 455.6587162 C212.93874148 455.65672004 214.38040599 455.65915293 215.82204151 455.66615486 C217.83933211 455.67380334 219.85666927 455.66007185 221.87392139 455.6454525 C223.59336964 455.64187233 223.59336964 455.64187233 225.34755421 455.63821983 C228.85952811 455.20288489 230.64435629 454.43647836 233.42079639 452.25726891 C236.04563947 448.59547574 236.79607048 446.08127869 236.79933643 441.6005764 C236.8075391 440.47250069 236.81574177 439.34442497 236.824193 438.18216515 C236.81804478 436.9535778 236.81189655 435.72499046 236.80556202 434.4591732 C236.81381027 432.46109502 236.82205923 430.46301683 236.83033466 428.46493876 C236.83632905 426.32026099 236.83495208 424.1756996 236.8314867 422.0310173 C236.82465535 417.54406302 236.84058677 413.05736303 236.85988331 408.57045555 C236.89772706 399.02857376 236.91051093 389.48671418 236.92079639 379.94476891 C236.93189426 369.67905153 236.94756238 359.41345253 236.99150896 349.14781505 C237.006736 345.42607575 237.0158284 341.70453963 237.01010609 337.98276901 C236.95721623 301.5117822 236.95721623 301.5117822 244.42079639 284.25726891 C244.79075733 283.39488609 245.16071827 282.53250328 245.54189014 281.64398766 C250.12900199 271.73281813 256.41339484 264.84637733 266.42079639 260.25726891 C278.57160598 255.95250348 292.68382251 255.51820169 304.60829639 260.94476891 C315.56977244 267.05444408 320.26638474 275.6731015 324.52626514 287.09320641 C327.2038057 296.56398303 327.71149359 305.71618482 327.69203663 315.52191734 C327.69643419 316.92103437 327.70174005 318.32014878 327.70787525 319.71925926 C327.7192916 322.70930895 327.72482841 325.69928856 327.72575665 328.68935966 C327.72771192 333.42212314 327.7458414 338.15474312 327.76651478 342.88745689 C327.81549153 354.63440566 327.84660494 366.38139277 327.86781788 378.12842369 C327.88435705 387.27712222 327.90718688 396.42569574 327.95083863 405.57431054 C327.97255893 410.27488691 327.98067834 414.9752254 327.97844589 419.67584848 C327.98011652 422.60108111 327.99418734 425.52615902 328.01165867 428.45133591 C328.01989398 430.4453923 328.01334099 432.43949276 328.00629139 434.4335537 C328.01681586 443.29803359 328.01681586 443.29803359 331.42079639 451.25726891 C335.64263464 454.93532333 338.71778214 455.75988675 344.24892139 455.77484703 C344.9034026 455.78185631 345.5578838 455.78886559 346.23219776 455.79608727 C348.37883896 455.81358056 350.52414364 455.80207731 352.67079639 455.78851891 C354.17242655 455.79121636 355.674055 455.79510089 357.17567921 455.80011559 C360.31614858 455.80599883 363.45616152 455.79748624 366.59657764 455.77875328 C370.61161604 455.75596369 374.62558479 455.76909318 378.64058399 455.79304314 C381.73939974 455.80753336 384.83796406 455.80288054 387.93678761 455.79253197 C389.416688 455.78987355 390.89661161 455.7931032 392.37648487 455.80245018 C394.44915747 455.81267002 396.52012503 455.79704332 398.59267139 455.77484703 C399.76926319 455.77166466 400.94585499 455.76848228 402.15810108 455.76520348 C407.23134811 454.97540323 410.18325863 452.88259332 413.27252674 448.82529259 C415.04858563 443.30653646 414.82852719 437.93069524 414.79311085 432.16889 C414.79554159 430.8341398 414.79926364 429.49939143 414.80417347 428.16464806 C414.81356761 424.54330665 414.80415876 420.92223643 414.79084134 417.30091619 C414.77946056 413.48099803 414.78364077 409.66109199 414.78558826 405.84116173 C414.78647151 399.40348509 414.77540415 392.96591364 414.75697803 386.528265 C414.73600778 379.16120991 414.7322578 371.79431098 414.73853999 364.42723215 C414.744316 357.28002832 414.73848031 350.1328777 414.72736645 342.98568153 C414.72280733 339.97769337 414.72180799 336.96973872 414.72395229 333.96174812 C415.2800451 266.52361545 415.2800451 266.52361545 384.19814014 208.94086266 C365.36003975 190.73864751 342.27432196 184.81112784 316.67079639 184.94476891 C315.96491383 184.94625938 315.25903126 184.94774986 314.53175831 184.94928551 C304.21783669 184.98846636 294.39700262 185.40343974 284.42079639 188.25726891 Z M32.42079639 195.25726891 C31.2740195 197.55082269 31.29358989 198.8283205 31.28936863 201.37812328 C31.28552748 202.24638738 31.28168634 203.11465149 31.2777288 204.00922662 C31.27859528 204.96883646 31.27946176 205.92844631 31.2803545 206.91713524 C31.27738338 207.9321208 31.27441226 208.94710636 31.2713511 209.99284905 C31.26263443 213.41603952 31.26115335 216.83919515 31.25966358 220.26239586 C31.25503751 222.70774982 31.25001314 225.15310305 31.24461842 227.59845543 C31.23147223 234.25755259 31.22500874 240.91663604 31.22060776 247.57574296 C31.21784692 251.7323801 31.21360984 255.88901491 31.20910358 260.04565048 C31.19690935 271.55015765 31.1866105 283.05466295 31.18322849 294.55917645 C31.18300893 295.29578359 31.18278936 296.03239074 31.18256314 296.79131932 C31.18234486 297.52970787 31.18212659 298.26809643 31.18190169 299.02886039 C31.18145822 300.52516258 31.18101166 302.02146477 31.18056202 303.51776695 C31.18034059 304.25998748 31.18011916 305.002208 31.17989102 305.76692005 C31.17594275 317.79441554 31.15848855 329.82185045 31.1352025 341.84932254 C31.11149771 354.19253787 31.09902703 366.5357228 31.09786057 378.87896127 C31.09694329 385.81132917 31.09117777 392.74361816 31.07304096 399.67596436 C31.05604464 406.19546171 31.05438084 412.71483555 31.06317997 419.23435783 C31.06395298 421.63013611 31.05957308 424.0259223 31.04972172 426.42168045 C31.03708076 429.68678486 31.04283647 432.95135156 31.05330372 436.21645164 C31.04524731 437.16936932 31.03719091 438.122287 31.02889037 439.10408098 C31.07689646 445.48625417 32.07935586 448.92805326 36.71205616 453.53656578 C41.99820068 456.75334814 48.79109093 455.8287551 54.76064014 455.78851891 C56.17019385 455.79121704 57.57974573 455.79510213 58.9892931 455.80011559 C61.93726364 455.80599762 64.88474785 455.79749169 67.83266163 455.77875328 C71.596522 455.75598451 75.35923998 455.76908035 79.12305832 455.79304314 C82.0323379 455.80755477 84.94135039 455.80287049 87.85063839 455.79253197 C89.2376065 455.78987834 90.62459947 455.7930861 92.01153851 455.80245018 C102.49931586 456.01509952 102.49931586 456.01509952 111.42079639 451.25726891 C114.88135038 445.9722602 114.84536726 441.3353255 114.80174732 435.23700523 C114.80642729 434.2315582 114.81110727 433.22611116 114.81592906 432.19019604 C114.82788941 428.82309634 114.81841751 425.45640284 114.80897999 422.08930016 C114.81304521 419.67453333 114.81838682 417.25976837 114.82491016 414.84500694 C114.83717411 408.96828307 114.83537286 403.09166459 114.82667224 397.21494365 C114.81989338 392.43824047 114.81897985 387.66156951 114.82224369 382.8848629 C114.82293324 381.86457252 114.82293324 381.86457252 114.82363672 380.82367021 C114.82459591 379.44181179 114.82556855 378.05995338 114.82655449 376.67809498 C114.83510637 363.72449417 114.82527745 350.77095708 114.80915339 337.81736672 C114.79575038 326.70583085 114.79807853 315.59438901 114.81190968 304.48285484 C114.82796908 291.57518243 114.83428241 278.66756584 114.82507288 265.75988483 C114.82411725 264.3831482 114.82317414 263.00641156 114.82224369 261.62967491 C114.82178086 260.95231798 114.82131804 260.27496106 114.82084119 259.57707816 C114.81825238 254.80685669 114.82261994 250.03667068 114.82968235 245.2664547 C114.83898124 238.84455587 114.83234795 232.42279285 114.81499958 226.00090981 C114.81102947 223.64264407 114.8121777 221.2843634 114.81878757 218.92610359 C114.82697217 215.70971063 114.81671823 212.49388903 114.80174732 209.27753258 C114.80843949 208.34192906 114.81513165 207.40632555 114.82202661 206.44237041 C114.77553289 201.3006948 114.32210511 197.68970288 111.42079639 193.25726891 C107.21842716 189.71034858 104.24082569 188.75207068 98.79213428 188.7079525 C96.84465038 188.67935646 96.84465038 188.67935646 94.85782337 188.65018272 C93.45303202 188.65070563 92.04824061 188.65257998 90.64345264 188.65570641 C89.18905623 188.64792295 87.73466432 188.63925165 86.28027821 188.62973595 C83.2381816 188.6148497 80.19654937 188.61536563 77.15443897 188.62592125 C73.2691643 188.63751028 69.38579677 188.60363923 65.50083733 188.5572319 C62.49888601 188.5276687 59.49738953 188.52602527 56.49531841 188.53225136 C55.06365587 188.53122942 53.63196637 188.52083799 52.20044613 188.50062752 C40.81747749 188.33879229 40.81747749 188.33879229 32.42079639 195.25726891 Z " fill="#0077B7" transform="translate(43.579203605651855,-0.25726890563964844)"/>
</svg>
