<?xml version="1.0" encoding="UTF-8"?>
<svg version="1.1" xmlns="http://www.w3.org/2000/svg" width="1024" height="1024">
<path d="M0 0 C1.40232333 0.0022235 2.80464674 0.00439996 4.20697021 0.00653076 C24.61173636 0.04946835 44.76437322 0.42867258 65 3.3125 C65.7140802 3.41195923 66.4281604 3.51141846 67.16387939 3.6138916 C150.19936811 15.20023886 231.28597856 45.27528316 299 95.3125 C300.58748047 96.47652344 300.58748047 96.47652344 302.20703125 97.6640625 C305.15916139 99.85397817 308.08512755 102.07326024 311 104.3125 C311.54188965 104.72822266 312.0837793 105.14394531 312.64208984 105.57226562 C329.34643168 118.42542121 345.23816654 132.25931456 360 147.3125 C362.90320276 150.22588943 365.8198938 153.1253225 368.7421875 156.01953125 C370.11984395 157.3879682 371.49744694 158.75645897 372.875 160.125 C373.89787109 161.13530273 373.89787109 161.13530273 374.94140625 162.16601562 C379.50920425 166.7120622 383.80918991 171.41847741 388 176.3125 C388.845625 177.27671875 389.69125 178.2409375 390.5625 179.234375 C398.19949486 188.09524724 405.21029197 197.3828938 412.14648438 206.79882812 C413.88643653 209.15848926 415.63781991 211.50925677 417.390625 213.859375 C425.59730555 224.94669264 432.94016782 236.46678907 440 248.3125 C440.73186523 249.53066406 440.73186523 249.53066406 441.47851562 250.7734375 C476.56179273 309.45128662 498.82395175 374.86356355 508.3125 442.5 C508.45969482 443.54647705 508.60688965 444.5929541 508.75854492 445.67114258 C509.22270533 449.2135909 509.62653361 452.75960856 510 456.3125 C510.08613556 457.11617004 510.17227112 457.91984009 510.26101685 458.74786377 C512.02594883 475.72980352 512.36404592 492.65704127 512.31805801 509.71789551 C512.31241427 511.84480871 512.30959607 513.97171394 512.30697632 516.09863281 C512.27076001 536.32229142 511.86949454 556.25992991 509 576.3125 C508.75056641 578.19098633 508.75056641 578.19098633 508.49609375 580.10742188 C497.13830648 664.95429935 464.76364927 744.00914237 383.16015625 852.96875 C381.22524664 855.06810943 379.35527274 857.20549313 377.5 859.375 C373.25177095 864.26751023 368.61229485 868.76694253 364 873.3125 C361.23297452 876.07043837 358.47763814 878.83950281 355.73046875 881.6171875 C349.66371368 887.74010835 343.61394106 893.77611113 337 899.3125 C336.08476563 900.10527344 335.16953125 900.89804687 334.2265625 901.71484375 C314.77520882 918.51094305 293.79060441 933.70668281 272 947.3125 C271.2668457 947.77446777 270.53369141 948.23643555 269.77832031 948.71240234 C254.67765992 958.18522522 238.91728355 966.32324806 223 974.3125 C221.66388672 974.98756592 221.66388672 974.98756592 220.30078125 975.67626953 C174.51580617 998.67145583 123.78665017 1012.7024883 73.25 1020.0625 C72.56865997 1020.16355042 71.88731995 1020.26460083 71.18533325 1020.36871338 C47.52373931 1023.83899935 23.88990405 1024.69211334 0 1024.625 C-1.40198764 1024.62277656 -2.80397535 1024.62060009 -4.20596313 1024.61846924 C-24.60464734 1024.57553235 -44.77389226 1024.23430931 -65 1021.3125 C-65.69712097 1021.21304077 -66.39424194 1021.11358154 -67.11248779 1021.0111084 C-121.44575008 1013.21380075 -173.58653841 998.33685442 -223 974.3125 C-224.02029297 973.82281738 -225.04058594 973.33313477 -226.09179688 972.82861328 C-263.97225078 954.61500886 -299.60386919 931.20610014 -331.39648438 903.68945312 C-333.05906331 902.26178181 -334.73821745 900.8558566 -336.421875 899.453125 C-344.5555127 892.64225099 -352.11709472 885.40366671 -359.52880859 877.81640625 C-362.79472977 874.47786088 -366.11626332 871.19702182 -369.453125 867.9296875 C-376.03008548 861.46390876 -382.32966756 855.01589961 -388.04296875 847.765625 C-389.86584879 845.4806576 -391.76969261 843.33590801 -393.75 841.1875 C-399.36896121 834.93179766 -404.3537006 828.16512383 -409.39794922 821.4453125 C-410.84340436 819.520976 -412.29797011 817.60390588 -413.75390625 815.6875 C-431.12839316 792.61942311 -446.59410728 767.52390123 -458.98388672 741.43017578 C-460.1437802 739.01284852 -461.33910027 736.61447808 -462.53515625 734.21484375 C-469.62155297 719.87534128 -475.68524656 705.24012085 -481.27416992 690.25701904 C-482.02003609 688.25882276 -482.77080254 686.26250475 -483.52148438 684.26611328 C-494.90874099 653.85889589 -502.63583529 623.50144269 -507 591.3125 C-507.22961426 589.62278076 -507.22961426 589.62278076 -507.46386719 587.89892578 C-519.15357691 499.09653539 -510.48284454 408.96662033 -467 299.3125 C-466.64728027 298.51312012 -466.29456055 297.71374023 -465.93115234 296.89013672 C-454.50864548 271.22215634 -440.05105878 246.35374872 -424 223.3125 C-423.4117041 222.46413574 -423.4117041 222.46413574 -422.81152344 221.59863281 C-412.60443003 206.93480361 -401.71383599 192.80230467 -390 179.3125 C-389.04867187 178.21035156 -389.04867187 178.21035156 -388.078125 177.0859375 C-386.39726777 175.15063858 -384.69940603 173.23152298 -383 171.3125 C-382.41412109 170.64250977 -381.82824219 169.97251953 -381.22460938 169.28222656 C-374.7822833 162.00246083 -367.98035159 155.10669894 -361.10791016 148.23510742 C-359.13023246 146.25523826 -357.16071808 144.26748312 -355.19140625 142.27929688 C-348.82820026 135.88850112 -342.45555966 129.75948702 -335.35058594 124.18945312 C-332.83925967 122.18414814 -330.48267653 120.05795002 -328.125 117.875 C-277.60899401 72.03053689 -211.11805387 39.26892556 -146 20.3125 C-144.4538501 19.86100586 -144.4538501 19.86100586 -142.87646484 19.40039062 C-119.98930014 12.80190884 -96.80735508 7.99332512 -73.25 4.5625 C-72.22798996 4.41092438 -72.22798996 4.41092438 -71.18533325 4.25628662 C-47.52373863 0.78600055 -23.88990396 -0.06710672 0 0 Z " fill="#0E345E" transform="translate(512,-0.3125)"/>
<path d="M0 0 C1.68355259 0.31305803 3.37465789 0.58629925 5.06884766 0.83544922 C12.79668361 1.98319777 19.98554851 3.98372996 27.37719727 6.49291992 C29.14220581 7.08955444 29.14220581 7.08955444 30.94287109 7.69824219 C66.85526688 20.12747954 99.1779316 43.20179032 121.99584961 73.68041992 C123.23291088 75.32189626 124.50130854 76.93962345 125.77172852 78.55541992 C151.19166096 111.57258581 161.51516156 152.37106337 161.62719727 193.30541992 C161.62981567 194.21982849 161.63243408 195.13423706 161.63513184 196.07635498 C161.639291 209.62365566 160.88426483 222.30301113 157.31469727 235.43041992 C157.00646089 236.73136345 156.70292451 238.03343126 156.40454102 239.33666992 C149.59963823 267.38111776 136.56665237 294.8111358 117.31469727 316.43041992 C116.5296582 317.32374023 115.74461914 318.21706055 114.93579102 319.13745117 C111.18044739 323.36298609 107.36324489 327.48308598 103.31469727 331.43041992 C102.75266602 332.03756836 102.19063477 332.6447168 101.61157227 333.27026367 C90.89686375 344.57796178 77.81898929 353.75827348 64.31469727 361.43041992 C62.6324707 362.41075195 62.6324707 362.41075195 60.91625977 363.41088867 C50.53011825 369.31116475 39.55471814 373.45618261 28.31469727 377.43041992 C27.61231934 377.68452637 26.90994141 377.93863281 26.1862793 378.20043945 C12.11440125 383.24137361 -2.87584517 386.29154172 -17.82202148 386.69995117 C-32.8420083 387.12797408 -41.67750092 388.38339011 -52.73657227 398.72192383 C-56.28469066 401.8326395 -60.25440113 404.334202 -64.18530273 406.93041992 C-70.14253739 410.94589582 -75.97262681 415.07424408 -81.68530273 419.43041992 C-88.20286994 424.39880333 -94.89964475 429.04870034 -101.68481445 433.64306641 C-107.25784748 437.42618301 -112.71859345 441.33094859 -118.12963867 445.34130859 C-122.70696412 448.72899475 -127.33786633 452.03242649 -131.99780273 455.30541992 C-140.95285391 461.59915107 -149.82270493 468.00741893 -158.68530273 474.43041992 C-168.17278157 481.30629168 -177.6724256 488.15985037 -187.26464844 494.88916016 C-191.06145331 497.55813103 -194.83177847 500.25826848 -198.57592773 503.00073242 C-199.38739258 503.59370117 -200.19885742 504.18666992 -201.03491211 504.79760742 C-202.59688519 505.9414445 -204.15566333 507.0896616 -205.71069336 508.24291992 C-209.25294141 510.83433706 -212.45286493 513.0807055 -216.68530273 514.43041992 C-216.65049805 515.7375293 -216.61569336 517.04463867 -216.57983398 518.39135742 C-216.09185213 544.40643035 -222.22979798 566.59960812 -234.68530273 589.43041992 C-235.17643555 590.33920898 -235.66756836 591.24799805 -236.17358398 592.18432617 C-254.18624441 623.79527673 -283.839285 644.09740066 -317.68530273 655.43041992 C-319.12776367 655.92348633 -319.12776367 655.92348633 -320.59936523 656.42651367 C-355.51753256 667.12366652 -392.69878814 661.57351391 -424.68530273 645.05541992 C-436.67529601 638.65893852 -446.81747455 630.77319935 -456.68530273 621.43041992 C-458.02915039 620.18325195 -458.02915039 620.18325195 -459.40014648 618.91088867 C-477.66990201 601.40984656 -493.8572388 574.87657522 -496.68530273 549.43041992 C-497.21140137 549.29579346 -497.7375 549.16116699 -498.27954102 549.02246094 C-506.19054552 546.83317465 -513.63448957 543.62529306 -521.16055298 540.39675903 C-525.37310084 538.59072322 -529.59378028 536.80388215 -533.81420898 535.01635742 C-534.70015244 534.6408223 -535.58609589 534.26528717 -536.49888611 533.87837219 C-546.46316979 529.6634053 -556.47862002 525.57524413 -566.49780273 521.49291992 C-580.84974743 515.64129567 -595.18543343 509.75321731 -609.49780273 503.80541992 C-624.72529535 497.47755444 -639.97077687 491.19518796 -655.23535156 484.95727539 C-656.73695882 484.343004 -658.238506 483.72858572 -659.73999023 483.11401367 C-660.46468002 482.81760986 -661.18936981 482.52120605 -661.9360199 482.21582031 C-665.93354908 480.57594475 -669.91996375 478.91237846 -673.8972168 477.22387695 C-674.76081818 476.85754654 -675.62441956 476.49121613 -676.51419067 476.11378479 C-678.17752897 475.4066767 -679.83976071 474.69695816 -681.5007019 473.98423767 C-682.25142975 473.66491776 -683.00215759 473.34559784 -683.77563477 473.01660156 C-684.43532257 472.73401993 -685.09501038 472.45143829 -685.77468872 472.16029358 C-687.69636489 471.36862157 -687.69636489 471.36862157 -689.8522644 470.97654724 C-690.45716705 470.79632523 -691.0620697 470.61610321 -691.68530273 470.43041992 C-705.90218401 443.7457374 -707.80198407 404.42391475 -710.43530273 374.68041992 C-710.49455933 374.01264526 -710.55381592 373.34487061 -710.61486816 372.65686035 C-712.19901639 354.41258368 -712.85744835 336.16922683 -712.81567383 317.85913086 C-712.81021159 315.00784215 -712.81571762 312.15670454 -712.82202148 309.30541992 C-712.82136214 307.46427375 -712.82008397 305.62312766 -712.81811523 303.78198242 C-712.82013947 302.94341705 -712.8221637 302.10485168 -712.82424927 301.24087524 C-712.80552763 296.53349078 -712.46840446 292.07381658 -711.68530273 287.43041992 C-707.72519749 288.0873938 -704.27809509 289.28681593 -700.56811523 290.80932617 C-699.67374504 291.17420135 -699.67374504 291.17420135 -698.76130676 291.54644775 C-696.77587297 292.3576972 -694.79312017 293.17529875 -692.81030273 293.99291992 C-691.38801702 294.57558344 -689.96556835 295.15784934 -688.54296875 295.73974609 C-684.71229998 297.3079011 -680.88388656 298.88149406 -677.05584717 300.45605469 C-673.12770978 302.07063759 -669.19743114 303.67998969 -665.26733398 305.28979492 C-657.89171348 308.3117666 -650.51810521 311.33861553 -643.1452179 314.36724854 C-637.4825934 316.69307103 -631.81871492 319.01581514 -626.15405273 321.33666992 C-599.03752296 332.44798982 -571.95198116 343.63389528 -544.87231445 354.8347168 C-521.90636733 364.33393914 -498.92930996 373.80471374 -475.9230957 383.20605469 C-475.07883026 383.55126663 -474.23456482 383.89647858 -473.36471558 384.25215149 C-471.6963597 384.93309228 -470.02720166 385.61207135 -468.35720825 386.28898621 C-463.79310975 388.14215204 -459.25244684 390.03922613 -454.72827148 391.98803711 C-453.73549194 392.40975189 -452.7427124 392.83146667 -451.71984863 393.26596069 C-449.80522826 394.08003795 -447.89546694 394.90567109 -445.99157715 395.74453735 C-441.18842955 397.77142638 -437.86803084 399.14216479 -432.68530273 397.43041992 C-430.55827211 396.3007793 -428.4770599 395.08275109 -426.43530273 393.80541992 C-413.14174578 385.86843198 -398.78864323 381.44803992 -383.68530273 378.43041992 C-382.18676758 378.10944336 -382.18676758 378.10944336 -380.65795898 377.78198242 C-375.96721408 376.87409631 -371.55861601 376.39380693 -366.78295898 376.51245117 C-357.4489481 376.98202085 -357.4489481 376.98202085 -349.18530273 373.50854492 C-347.52503051 370.94401728 -346.16528026 368.33419439 -344.84008789 365.5847168 C-342.36892183 360.97465986 -339.15264993 356.80899584 -336.12280273 352.55541992 C-334.71261033 350.53903473 -333.30508752 348.52078007 -331.90014648 346.50073242 C-330.8441626 344.98334473 -330.8441626 344.98334473 -329.7668457 343.43530273 C-326.54580663 338.7854612 -323.36400008 334.10926673 -320.18530273 329.43041992 C-314.40472498 320.9236142 -308.55078947 312.47070169 -302.66577148 304.03588867 C-298.13084203 297.52848504 -293.64330669 290.99072469 -289.18530273 284.43041992 C-284.06594201 276.89687646 -278.89704276 269.40034946 -273.68530273 261.93041992 C-267.10905873 252.50369748 -260.61432454 243.02408314 -254.15014648 233.52026367 C-249.80382783 227.13030384 -245.42374306 220.76382744 -241.03979492 214.3996582 C-239.55693761 212.24379536 -238.07789274 210.08534807 -236.59936523 207.92651367 C-236.09115234 207.1851416 -235.58293945 206.44376953 -235.05932617 205.67993164 C-234.07999471 204.25112851 -233.1014447 202.82178936 -232.1237793 201.3918457 C-228.7976287 196.54274589 -228.7976287 196.54274589 -227.68530273 195.43041992 C-227.5755442 193.9202483 -227.52937895 192.40538217 -227.50952148 190.89135742 C-226.58385591 148.2499829 -213.4611862 108.5319558 -187.68530273 74.43041992 C-186.70110352 73.12524414 -186.70110352 73.12524414 -185.69702148 71.79370117 C-154.13363852 31.21220879 -108.01130276 6.02825034 -57.49780273 -1.81958008 C-38.57101208 -3.92255682 -18.69342161 -3.67477519 0 0 Z " fill="#FEFEFE" transform="translate(712.685302734375,191.569580078125)"/>
<path d="M0 0 C20.37155957 17.7607236 33.04162389 41.35470411 34.91015625 68.43359375 C36.54347141 94.35875991 28.07591725 119.21729111 11.19140625 138.90625 C-5.22178282 157.09003995 -27.93831326 170.64600253 -52.83081055 172.65478516 C-80.66464493 173.78830064 -105.12423486 167.69876757 -126.33984375 148.93359375 C-127.92949205 147.44028777 -129.51320836 145.94063233 -131.08984375 144.43359375 C-131.77691406 143.82128906 -132.46398437 143.20898438 -133.171875 142.578125 C-150.93205921 126.14907885 -159.22564235 101.20509469 -160.34375 77.640625 C-160.70184546 66.36935193 -159.43784862 56.19543391 -156.08984375 45.43359375 C-155.73921875 44.30566406 -155.38859375 43.17773438 -155.02734375 42.015625 C-149.97720969 27.61923589 -141.70527082 16.17947153 -131.08984375 5.43359375 C-130.50847656 4.78003906 -129.92710937 4.12648438 -129.328125 3.453125 C-96.54987737 -32.62771685 -35.32231838 -29.81323145 0 0 Z " fill="#FEFEFE" transform="translate(743.08984375,308.56640625)"/>
<path d="M0 0 C4.62659172 3.59307975 8.95478028 7.4649709 13.1875 11.51171875 C14.17943359 12.40890625 14.17943359 12.40890625 15.19140625 13.32421875 C39.10322026 35.73852522 51.61689214 69.64972052 52.65966797 101.89599609 C52.98900855 134.32737643 41.08367975 164.99027585 20.1875 189.51171875 C19.53652344 190.30835938 18.88554688 191.105 18.21484375 191.92578125 C8.19714745 203.72232082 -4.17859606 212.39621414 -17.8125 219.51171875 C-18.70710937 219.99253906 -19.60171875 220.47335937 -20.5234375 220.96875 C-26.43172531 224.05336083 -32.49756054 226.39762646 -38.8125 228.51171875 C-40.01326172 228.929375 -40.01326172 228.929375 -41.23828125 229.35546875 C-53.17267826 233.26198168 -65.47039523 233.83828234 -77.9375 233.76171875 C-79.20464844 233.76945312 -80.47179687 233.7771875 -81.77734375 233.78515625 C-89.66362911 233.76891261 -97.08473084 233.06233704 -104.8125 231.51171875 C-105.94042969 231.31191406 -107.06835938 231.11210937 -108.23046875 230.90625 C-139.02905174 224.43376923 -168.26281686 203.28312806 -185.54296875 177.15234375 C-191.74387035 167.36116551 -196.78683434 157.30858259 -200.6875 146.38671875 C-201.09875122 145.24372314 -201.09875122 145.24372314 -201.51831055 144.07763672 C-205.6919752 131.74452893 -207.31783609 119.66473812 -207.20361328 106.73266602 C-207.18753041 104.5782928 -207.20357201 102.42580151 -207.22265625 100.27148438 C-207.27407046 66.61215871 -192.07505352 35.63368989 -169.125 11.51171875 C-123.29455587 -32.86379065 -51.24843242 -38.62125659 0 0 Z M-146.8125 35.51171875 C-147.46605469 36.09308594 -148.11960937 36.67445313 -148.79296875 37.2734375 C-163.25992372 50.41618606 -173.93208182 74.13003752 -174.91870117 93.60839844 C-175.64551221 121.10656168 -170.31143455 147.24840319 -151.1875 168.01171875 C-149.41411593 169.8640136 -147.61479466 171.687242 -145.8125 173.51171875 C-145.24273438 174.15367187 -144.67296875 174.795625 -144.0859375 175.45703125 C-133.50318562 187.12519358 -117.81812208 194.63435363 -102.8125 198.51171875 C-101.85730469 198.79144531 -100.90210938 199.07117188 -99.91796875 199.359375 C-83.22320174 203.69961068 -65.10882168 203.01601345 -48.8125 197.51171875 C-47.70003906 197.14949219 -46.58757812 196.78726563 -45.44140625 196.4140625 C-32.97764073 192.00012393 -21.68478295 185.3094675 -11.8125 176.51171875 C-10.67554688 175.49851562 -10.67554688 175.49851562 -9.515625 174.46484375 C8.65620434 157.2955981 19.03732225 132.79000705 20.375 108.04296875 C20.85492752 81.40699112 12.14398816 57.25089076 -5.8125 37.51171875 C-6.72902344 36.47337891 -6.72902344 36.47337891 -7.6640625 35.4140625 C-22.11527701 19.94818825 -40.65932754 12.34956002 -60.8125 7.51171875 C-61.62074219 7.30804688 -62.42898438 7.104375 -63.26171875 6.89453125 C-94.70582494 2.17550766 -124.6364836 13.60491044 -146.8125 35.51171875 Z " fill="#0B1E48" transform="translate(757.8125,279.48828125)"/>
<path d="M0 0 C17.62603312 14.73343701 30.70230877 34.72955716 36.7956543 56.95898438 C37.0947168 58.01601563 37.3937793 59.07304688 37.7019043 60.16210938 C44.4077669 87.85483826 38.60869518 117.26560228 24.76049805 141.81054688 C11.30534335 163.37089417 -6.94976075 178.10779163 -30.2043457 187.95898438 C-31.16985352 188.38050781 -32.13536133 188.80203125 -33.13012695 189.23632812 C-58.13593938 199.29177622 -88.05507313 196.87031418 -112.6496582 186.97851562 C-136.98432166 176.56771722 -157.35920963 157.10167422 -168.2043457 132.95898438 C-164.21646267 134.24896502 -160.33818027 135.67460349 -156.4699707 137.28710938 C-155.35485107 137.75060791 -154.23973145 138.21410645 -153.09082031 138.69165039 C-151.89078369 139.19237061 -150.69074707 139.69309082 -149.4543457 140.20898438 C-148.18569413 140.73529975 -146.91689189 141.26125208 -145.64794922 141.78686523 C-139.238036 144.44324041 -132.83367792 147.11233604 -126.43728638 149.80111694 C-123.41186205 151.07111353 -120.38358682 152.33422 -117.3548584 153.59631348 C-115.89756404 154.20554917 -114.44155054 154.81785922 -112.98693848 155.43347168 C-100.19729393 160.84427572 -88.5512462 164.54224644 -74.5168457 164.45898438 C-73.3834375 164.45326416 -72.2500293 164.44754395 -71.08227539 164.44165039 C-61.4429347 164.23826277 -53.07518468 162.69553845 -44.2043457 158.95898438 C-43.57608887 158.69666016 -42.94783203 158.43433594 -42.30053711 158.1640625 C-34.02116197 154.59466531 -26.88544581 150.01727007 -20.2043457 143.95898438 C-19.03258789 142.90904297 -19.03258789 142.90904297 -17.8371582 141.83789062 C-9.14418604 133.62786136 -3.74683828 123.92130964 0.7956543 112.95898438 C1.09342773 112.2603125 1.39120117 111.56164062 1.69799805 110.84179688 C8.81908333 93.19851096 7.38589619 72.30707752 0.5456543 54.83398438 C-11.59325198 27.66595604 -31.16933162 15.1495095 -57.6418457 4.27148438 C-59.56633323 3.47407918 -61.49056686 2.67606094 -63.41455078 1.87744141 C-69.00637764 -0.44037211 -74.60425314 -2.7432557 -80.2043457 -5.04101562 C-80.99413818 -5.36527527 -81.78393066 -5.68953491 -82.59765625 -6.02362061 C-90.79042081 -9.38613998 -98.99074099 -12.72967247 -107.2043457 -16.04101562 C-107.2043457 -16.70101562 -107.2043457 -17.36101563 -107.2043457 -18.04101562 C-70.931346 -31.40475236 -29.97060307 -24.15809651 0 0 Z " fill="#154779" transform="translate(424.204345703125,625.041015625)"/>
</svg>
